<?xml version="1.0" encoding="UTF-8" standalone="no"?>
<!-- Created with Inkscape (http://www.inkscape.org/) -->

<svg
   xmlns:dc="http://purl.org/dc/elements/1.1/"
   xmlns:cc="http://creativecommons.org/ns#"
   xmlns:rdf="http://www.w3.org/1999/02/22-rdf-syntax-ns#"
   xmlns:svg="http://www.w3.org/2000/svg"
   xmlns="http://www.w3.org/2000/svg"
   xmlns:sodipodi="http://sodipodi.sourceforge.net/DTD/sodipodi-0.dtd"
   xmlns:inkscape="http://www.inkscape.org/namespaces/inkscape"
   version="1.1"
   width="198.95305"
   height="87.687576"
   id="svg2"
   inkscape:version="0.48.1 r9760"
   sodipodi:docname="victory.svg">
  <sodipodi:namedview
     pagecolor="#ffffff"
     bordercolor="#666666"
     borderopacity="1"
     objecttolerance="10"
     gridtolerance="10"
     guidetolerance="10"
     inkscape:pageopacity="0"
     inkscape:pageshadow="2"
     inkscape:window-width="1143"
     inkscape:window-height="681"
     id="namedview7"
     showgrid="false"
     fit-margin-top="0"
     fit-margin-left="0"
     fit-margin-right="0"
     fit-margin-bottom="20"
     inkscape:zoom="3.1208642"
     inkscape:cx="114.74694"
     inkscape:cy="43.375596"
     inkscape:window-x="0"
     inkscape:window-y="0"
     inkscape:window-maximized="0"
     inkscape:current-layer="svg2" />
  <defs
     id="defs4" />
  <metadata
     id="metadata7">
    <rdf:RDF>
      <cc:Work
         rdf:about="">
        <dc:format>image/svg+xml</dc:format>
        <dc:type
           rdf:resource="http://purl.org/dc/dcmitype/StillImage" />
        <dc:title />
      </cc:Work>
    </rdf:RDF>
  </metadata>
  <g
     id="g3103"
     transform="matrix(0.99369984,-0.11207423,0.11207423,0.99369984,-151.55697,-320.42852)">
    <path
       id="path3109"
       style="fill:#000000"
       d="m 213.9459,346.58991 -3.46875,2.125 c -3.7788,2.33541 -5.71167,3.21377 -4.63997,4.94786 0.3724,0.60244 2.19565,1.09375 4.03125,1.09375 3.5214,0 3.53427,1.33537 8.80237,9.15758 2.5513,3.78839 5,4.88507 5,2.25 0,-0.80607 -1.575,-4.34165 -3.5,-7.84375 -1.925,-3.50211 -1.5374,-3.00679 -1.5374,-4.16794 0,-1.16116 -1.05185,-3.34185 -2.34375,-4.84375 z m 80.54653,49.91806 c -0.63757,-0.0929 -1.29761,0.0909 -2.06445,0.45902 -1.64168,0.78824 -3.41829,3.15684 -3.9566,5.24587 -1.54537,4.89922 -2.98808,8.65058 -6.74557,11.8499 -5.9223,0.68873 -6.96487,0.33126 -10.86882,-3.17562 -3.40277,-3.05672 -6.5622,-4.28137 -13.40887,-5.19175 -5.47972,-0.72863 -10.2724,-2.26995 -12.32038,-3.9683 -8.4639,-3.86521 -15.04764,-0.17971 -21.00476,3.32309 -7.7614,-1.3865 -13.72848,-4.74245 -16.00027,-9.54082 -1.82324,-3.85107 -7.97148,1.9654 -24.64466,5.27781 -7.1886,-8.88902 -11.96376,-9.09964 -18.93433,-5.34985 -6.46487,3.47776 -8.93832,10.05066 -11.52709,-1.35278 -1.339,-5.89826 -2.81822,-4.35365 -7.91122,-1.40563 l -5.34722,3.07635 -3.25403,-4.32947 c -2.74893,-3.67453 -4.91459,-4.53283 -13.771,-5.32694 -27.772972,-3.12011 -5.03254,4.68166 -4.86985,7.30054 11.69487,-5.00829 11.55426,-1.11597 15.43861,8.2947 l 1.68083,4.05769 4.65938,-4.50619 c 5.65281,-5.47336 8.00207,-5.38329 11.3393,0.39835 2.25999,3.91553 1.04615,7.52196 4.638,5.92555 14.01507,-7.32574 13.46347,-13.23975 24.94092,-2.45752 1.85894,1.74634 15.6882,0.45167 23.63821,-5.20218 l 2.71749,3.23116 c 1.55229,1.85229 5.24691,4.31696 8.63182,5.72221 5.66218,1.44579 10.20068,-0.50732 14.49785,-2.23298 7.3155,-1.69673 11.24578,-0.036 12.69114,5.14224 1.19262,4.65184 1.69041,4.72825 7.4803,0.87511 5.13709,-3.41875 8.60254,-2.73866 16.88005,3.41333 3.99052,2.96591 5.22712,3.19015 14.66267,2.43993 2.26996,-0.32972 6.27641,-2.62329 7.2522,-1.00606 1.17233,2.32102 3.28904,4.65996 4.72613,5.21881 1.43726,0.55887 3.07062,1.15432 3.62481,1.32082 0.55434,0.16652 2.79471,-0.82049 4.96617,-2.20733 3.57583,-2.28357 3.81276,-3.0605 2.66055,-8.25382 -0.69974,-3.1539 -3.13093,-8.51986 -5.41909,-11.90107 -2.35107,-3.47425 -3.67558,-4.95982 -5.07822,-5.16417 z m -0.0897,8.32364 c 0.73041,-0.0131 1.76259,0.96927 3.21037,3.60124 0.55317,1.00563 2.28458,4.83882 2.12934,6.2153 -0.15525,1.37647 -4.30571,0.45782 -5.44621,0.32919 -1.14051,-0.12863 -1.95211,-1.37348 -1.79687,-2.74996 0.11158,-0.98934 0.0368,-7.36233 1.90337,-7.39577 z"
       inkscape:connector-curvature="0"
       sodipodi:nodetypes="cccscsssccccccssccscssccccccccccscccccsccccccssccssssc" />
  </g>
</svg>
