<?xml version="1.0" encoding="UTF-8" standalone="no"?>
<!-- Created with Inkscape (http://www.inkscape.org/) -->

<svg
   xmlns:dc="http://purl.org/dc/elements/1.1/"
   xmlns:cc="http://creativecommons.org/ns#"
   xmlns:rdf="http://www.w3.org/1999/02/22-rdf-syntax-ns#"
   xmlns:svg="http://www.w3.org/2000/svg"
   xmlns="http://www.w3.org/2000/svg"
   xmlns:sodipodi="http://sodipodi.sourceforge.net/DTD/sodipodi-0.dtd"
   xmlns:inkscape="http://www.inkscape.org/namespaces/inkscape"
   version="1.1"
   width="140.41731"
   height="97.137718"
   id="svg2"
   inkscape:version="0.48.1 r9760"
   sodipodi:docname="blue.svg">
  <sodipodi:namedview
     pagecolor="#ffffff"
     bordercolor="#666666"
     borderopacity="1"
     objecttolerance="10"
     gridtolerance="10"
     guidetolerance="10"
     inkscape:pageopacity="0"
     inkscape:pageshadow="2"
     inkscape:window-width="1101"
     inkscape:window-height="744"
     id="namedview7"
     showgrid="false"
     fit-margin-bottom="20"
     fit-margin-top="0"
     fit-margin-left="0"
     fit-margin-right="0"
     inkscape:zoom="2.4690878"
     inkscape:cx="129.71918"
     inkscape:cy="-0.88878604"
     inkscape:window-x="0"
     inkscape:window-y="0"
     inkscape:window-maximized="0"
     inkscape:current-layer="svg2" />
  <defs
     id="defs4" />
  <metadata
     id="metadata7">
    <rdf:RDF>
      <cc:Work
         rdf:about="">
        <dc:format>image/svg+xml</dc:format>
        <dc:type
           rdf:resource="http://purl.org/dc/dcmitype/StillImage" />
        <dc:title />
      </cc:Work>
    </rdf:RDF>
  </metadata>
  <g
     transform="translate(-554.33296,-553.23776)"
     id="layer1">
    <path
       d="m 599.26093,553.24525 c -0.30251,-0.0178 -0.61896,-0.004 -0.95413,0.0428 -6.05756,1.24335 -7.95401,1.41091 -12.19529,10.16128 -2.66342,5.49479 -6.39153,33.38215 -4.2312,42.57446 1.22651,5.21857 1.14408,6.84864 0.91271,7.20293 -0.23163,0.35428 -5.68031,4.78687 -8.08886,5.60782 -19.26204,6.56545 -22.23945,8.6262 -19.49609,9.82703 4.17812,1.82886 11.48953,-2.64525 25.8694,-7.20376 4.56749,-1.44792 6.85886,-4.56374 11.12829,-1.94973 5.1471,3.1514 8.63408,6.24159 12.98806,2.70732 0.73659,-0.0159 2.36925,-1.62321 2.90315,-2.22996 3.65004,-3.14363 5.47003,-3.12032 6.30447,0.35832 1.10107,4.74744 4.25376,6.34471 9.78952,4.97345 3.26805,-0.80943 5.38086,-0.34632 6.96882,1.50061 1.2581,1.46299 4.12805,4.36652 5.80734,3.34422 5.68209,-3.45908 11.44465,-1.18817 16.05323,-2.18661 2.68877,-0.59776 11.62999,-2.09835 20.72967,-2.53084 16.23893,-0.77174 21.00025,-1.32041 21.00025,-5.35808 0,-1.55792 -2.87639,0.52554 -11.56922,1.20505 -6.20463,0.48503 -10.3521,1.49586 -10.99646,-2.53416 1.3e-4,-0.59343 1.06351,-3.18814 2.36448,-5.78807 1.32294,-6.07875 0.40031,-7.2888 -4.56197,-8.00476 -2.65188,-0.38261 -6.20559,1.08271 -9.06145,2.38943 -1.71395,0.78424 -9.43243,7.89366 -8.67904,13.99169 0.91842,3.52024 -5.69464,5.65138 -7.80799,3.57274 -1.10624,-1.23855 -0.87449,-4.19294 -3.35844,-3.57773 -2.70073,4.60409 -8.25624,8.05322 -7.45276,-1.08269 0.38967,-4.4307 -2.05385,-4.79683 -4.87319,-0.85749 -9.68373,6.82574 -12.08977,-4.45308 -3.85781,-18.09308 17.89778,-29.65624 20.18262,-38.18822 11.57315,-43.64633 -2.15091,-1.36363 -3.8286,-1.94767 -5.39241,-1.58636 -2.0106,0.46454 -4.47689,1.1997 -6.63696,5.55854 -3.5282,7.11963 -10.11261,32.04883 -8.50368,38.98816 0.68202,2.94137 -0.0451,5.45126 -2.44731,8.31767 -0.67313,-1.71958 -1.70517,-3.90971 -3.23566,-6.85994 -3.68192,-7.09782 -10.37596,-1.71701 -8.75243,-10.59002 0.90649,-12.39624 7.58474,-36.40805 -2.24019,-38.24391 z m -2.97527,4.85442 c 0.7026,-0.0431 2.75504,1.73362 2.95529,2.21823 2.25064,5.44655 -2.68432,39.7654 -6.99025,46.56346 -4.91666,7.76167 -6.58151,1.59218 -5.98006,-9.34666 0.6252,-11.29016 0.25186,-24.40154 5.10601,-33.98415 0.9232,-1.58037 3.73799,-5.37909 4.90901,-5.45088 z m 38.29505,4.70401 c 3.87916,3.27997 -1.63845,13.44358 -2.50822,14.96584 -8.6559,19.12672 -14.27288,26.02663 -6.09777,-3.94446 1.1779,-4.31835 2.23107,-10.75452 3.94598,-11.87816 1.89457,-1.24135 3.04277,-0.51065 4.66001,0.85678 z m -33.80308,38.24425 c 0.55856,0.0202 4.02549,2.17633 4.67751,3.00454 1.13718,1.44381 2.5338,5.40816 2.5338,6.89156 0,5.44719 -10.69507,7.33255 -12.54427,2.75439 0.20981,-2.79754 2.33386,-12.51477 5.33296,-12.65049 z m 70.41753,8.44893 c 0.46523,1.12314 -2.01927,6.39361 -3.97227,8.03016 -4.28403,3.58979 -9.66112,3.30052 -9.66112,0.13058 1.3e-4,-2.19131 7.10574,-8.53698 9.73942,-8.61265 2.23371,-0.45218 3.4544,-0.60928 3.89397,0.45191 z"
       id="path3603"
       style="fill:#000000"
       inkscape:connector-curvature="0"
       sodipodi:nodetypes="cccccsssscccccscsssccsscccscsssscccccsscccsscsssccsccssccs" />
  </g>
</svg>
