<?xml version="1.0" encoding="UTF-8" standalone="no"?>
<!-- Created with Inkscape (http://www.inkscape.org/) -->

<svg
   xmlns:dc="http://purl.org/dc/elements/1.1/"
   xmlns:cc="http://creativecommons.org/ns#"
   xmlns:rdf="http://www.w3.org/1999/02/22-rdf-syntax-ns#"
   xmlns:svg="http://www.w3.org/2000/svg"
   xmlns="http://www.w3.org/2000/svg"
   xmlns:sodipodi="http://sodipodi.sourceforge.net/DTD/sodipodi-0.dtd"
   xmlns:inkscape="http://www.inkscape.org/namespaces/inkscape"
   version="1.1"
   width="141.70827"
   height="86.50753"
   id="svg2"
   inkscape:version="0.48.1 r9760"
   sodipodi:docname="red.svg">
  <sodipodi:namedview
     pagecolor="#ffffff"
     bordercolor="#666666"
     borderopacity="1"
     objecttolerance="10"
     gridtolerance="10"
     guidetolerance="10"
     inkscape:pageopacity="0"
     inkscape:pageshadow="2"
     inkscape:window-width="1274"
     inkscape:window-height="755"
     id="namedview7"
     showgrid="false"
     fit-margin-top="0"
     fit-margin-left="0"
     fit-margin-right="0"
     fit-margin-bottom="20"
     inkscape:zoom="3.5671617"
     inkscape:cx="70.363017"
     inkscape:cy="52.536976"
     inkscape:window-x="0"
     inkscape:window-y="0"
     inkscape:window-maximized="0"
     inkscape:current-layer="svg2" />
  <defs
     id="defs4" />
  <metadata
     id="metadata7">
    <rdf:RDF>
      <cc:Work
         rdf:about="">
        <dc:format>image/svg+xml</dc:format>
        <dc:type
           rdf:resource="http://purl.org/dc/dcmitype/StillImage" />
        <dc:title />
      </cc:Work>
    </rdf:RDF>
  </metadata>
  <g
     transform="translate(-357.08476,-540.10577)"
     id="layer1">
    <path
       d="m 485.4998,540.12286 c -2.53922,0.43538 -5.8002,5.83226 -9.77867,16.09375 l -5.58687,16.46477 c 0,0 -5.07418,-4.92605 -8.22318,-6.38396 -8.84022,-4.09281 -10.93005,1.32514 -10.93005,9.4829 0,2.52699 2.02983,6.6731 3.80175,9.52417 3.07225,5.20148 0.14289,7.4343 -3.93434,9.88208 -19.76895,11.86838 -31.59708,4.40973 -14.83822,-6.09962 7.55034,-3.7942 2.94893,-14.07519 -2.38864,-14.49783 -6.82852,-0.5407 -7.82401,-1.27149 -14.0489,7.18408 -0.0193,0.0403 -6.1452,7.68248 -6.1642,7.72297 -8.70565,8.72408 -10.88263,12.52185 -14.61232,9.06241 -5.32134,-4.82839 -10.38339,-20.56072 -15.46587,-20.56072 -2.29968,0 -6.91482,4.35177 -10.48708,9.22998 -4.09672,5.59475 -8.00997,14.37042 -11.11695,14.37042 -7.00233,-11.50799 -8.97048,26.45751 15.2572,-14.65466 2.29031,-2.48901 4.74907,-5.00425 8.3191,-1.92345 3.85622,4.07302 6.2938,11.35724 9.75316,15.66311 3.09864,3.88727 8.18759,5.24265 20.91838,-6.49332 1.05906,-0.97631 2.84362,0.14756 3.60328,1.29577 2.83358,4.2833 5.87976,10.34308 15.40137,9.76197 11.78927,-0.71951 15.70728,-4.97467 20.07308,-7.13605 1.57583,-0.37572 4.81508,-5.29573 6.69278,-6.91814 5.04086,-4.35584 8.78864,-1.76796 16.32893,3.40399 6.67401,4.57775 20.71948,8.53936 20.71948,4.68163 0,-1.17764 -3.66147,-1.80988 -7.10514,-3.19208 -9.55885,-3.83645 -19.81672,-6.37759 -19.81672,-10.28004 0,-1.93691 3.98534,-10.44071 6.04058,-13.68321 2.05495,-3.24251 7.53704,-10.70096 9.09726,-16.90717 2.49,-9.90575 2.55542,-11.567 0.64088,-13.96875 -0.51624,-0.6477 -1.05221,-1.07059 -1.6539,-1.125 -0.16294,-0.0156 -0.32689,-0.029 -0.49616,0 z m -27.93516,30.6654 c 2.80736,-0.1256 11.40692,5.42769 11.40692,8.68128 0,3.617 -3.54964,9.20131 -8.98313,4.88868 -2.63867,-2.09417 -5.08991,-10.34249 -4.2133,-11.66737 0.34269,-0.51796 1.14156,-1.87362 1.78951,-1.90259 z m -27.72098,7.18201 c 2.38614,0 6.1077,3.27875 5.72744,5.02393 -5.97906,6.5256 -12.36191,9.74096 -14.10469,5.93266 -1.68201,-3.67548 5.90139,-10.95659 8.37725,-10.95659 z"
       id="path3582"
       style="fill:#000000"
       inkscape:connector-curvature="0"
       sodipodi:nodetypes="cccsscscscccscccccscsccsscscccccccscccscss" />
  </g>
</svg>
