<?xml version="1.0" encoding="UTF-8" standalone="no"?>
<!-- Created with Inkscape (http://www.inkscape.org/) -->

<svg
   xmlns:dc="http://purl.org/dc/elements/1.1/"
   xmlns:cc="http://creativecommons.org/ns#"
   xmlns:rdf="http://www.w3.org/1999/02/22-rdf-syntax-ns#"
   xmlns:svg="http://www.w3.org/2000/svg"
   xmlns="http://www.w3.org/2000/svg"
   xmlns:sodipodi="http://sodipodi.sourceforge.net/DTD/sodipodi-0.dtd"
   xmlns:inkscape="http://www.inkscape.org/namespaces/inkscape"
   id="svg3055"
   version="1.1"
   inkscape:version="0.48.1 r9760"
   width="115.11287"
   height="153.93553"
   sodipodi:docname="fleur.svg">
  <metadata
     id="metadata3061">
    <rdf:RDF>
      <cc:Work
         rdf:about="">
        <dc:format>image/svg+xml</dc:format>
        <dc:type
           rdf:resource="http://purl.org/dc/dcmitype/StillImage" />
        <dc:title />
      </cc:Work>
    </rdf:RDF>
  </metadata>
  <defs
     id="defs3059" />
  <sodipodi:namedview
     pagecolor="#ffffff"
     bordercolor="#666666"
     borderopacity="1"
     objecttolerance="10"
     gridtolerance="10"
     guidetolerance="10"
     inkscape:pageopacity="0"
     inkscape:pageshadow="2"
     inkscape:window-width="1009"
     inkscape:window-height="745"
     id="namedview3057"
     showgrid="false"
     fit-margin-top="0"
     fit-margin-left="0"
     fit-margin-right="0"
     fit-margin-bottom="0"
     inkscape:zoom="1.3236549"
     inkscape:cx="130.07124"
     inkscape:cy="-9.9411981"
     inkscape:window-x="0"
     inkscape:window-y="0"
     inkscape:window-maximized="0"
     inkscape:current-layer="svg3055"
     units="in" />
  <path
     style="fill:#90d7ff;fill-opacity:1"
     d="m 77.981399,152.35929 c -3.048385,-2.15 -6.965621,-6.353 -7.586206,-8.139 -0.467701,-1.346 -1.49539,-1.758 -3.747035,-1.503 -2.123706,0.241 -6.748493,-1.564 -8.592485,-3.353 -1.317914,-1.279 -1.332104,-1.365 -0.416271,-2.527 4.140786,-5.253 5.692058,-10.144 4.520384,-14.253 l -0.645796,-2.265 -11.275885,3.623 -11.275883,3.623 -1.880878,-6.096 -1.880877,-6.096 5.069066,-1.985 5.069066,-1.985 -0.856907,-2.293 c -2.040465,-5.461 -8.068658,-10.278001 -12.676582,-10.130001 -4.688172,0.151 -8.575934,3.476001 -9.304317,7.957001 -0.284187,1.749 1.012374,6.572 2.564014,9.538 0.751451,1.436 -1.718597,1.849 -6.978747,1.165 -17.75600431,-2.308 -24.3692345,-25.056001 -11.012882,-37.882001 10.143376,-9.74 27.708103,-3.691 38.694279,13.327 1.39003,2.153 3.609612,6.312 4.9324,9.242001 1.322791,2.93 2.583751,5.59 2.80213,5.911 0.547522,0.805 5.978726,-1.027 6.022075,-2.032 0.05489,-1.271 -5.008669,-13.132001 -7.329767,-17.169001 -2.062843,-3.588 -9.624353,-13.753 -20.998183,-28.23 -3.90898,-3.759 -5.396139,-7.867 -7.0555,-12.831 -1.760296,-5.266 -2.299616,-7.682 -2.514554,-11.264 -0.648376,-10.807 1.464351,-21.913 6.433831,-33.8219996 L 29.266367,-7.1057128e-4 33.431278,2.5242894 c 12.748775,7.7299996 21.836977,17.1569996 27.128444,28.1419996 3.415288,7.09 3.987103,11.369 3.573952,26.745 -0.389064,14.48 -0.273315,21.561 0.450987,27.589 0.578725,4.817 3.529401,16.902001 4.377831,17.931001 0.450215,0.546 1.214621,0.452 3.421622,-0.419 l 2.841892,-1.122 -1.385562,-6.226001 c -4.090569,-18.382 -1.220666,-32.706 8.183548,-40.846 5.415769,-4.688 12.651145,-5.4 20.130148,-1.982 12.66774,5.791 17.13795,23.293 8.48273,33.213 -2.36085,2.705 -6.85509,6.175 -7.53762,5.82 -0.29776,-0.156 -0.70106,-1.551 -0.89622,-3.102 -1.02704,-8.16 -9.059037,-12.184 -15.39613,-7.713 -3.819066,2.694 -5.699616,10.056 -4.015702,15.721 l 0.697541,2.347 5.241783,-1.47 5.241784,-1.469 2.171198,5.999001 2.171194,5.999 -11.182755,3.901 -11.182761,3.901 0.375162,1.633 c 0.241672,1.051 1.374318,2.601 3.183262,4.354 2.59798,2.519 4.74213,3.618 9.485281,4.863 1.43095,0.376 1.471505,0.453 1.189866,2.268 -0.406692,2.62 -3.061891,6.849 -4.967316,7.912 -1.995538,1.113 -2.197422,1.685 -1.862092,5.279 0.269417,2.887 -0.755374,8.94 -1.916298,11.319 -0.59135,1.212 -0.706681,1.187 -3.455648,-0.752 z"
     id="path3084"
     inkscape:connector-curvature="0"
     sodipodi:nodetypes="sssssscccccccsssssssssssccsscsssssscsssssssscccccccssssssss" />
</svg>
